HIERARCHY
ROOT Hips
{
	OFFSET -0.001795 -0.223333 0.028219
	CHANNELS 6 Xposition Yposition Zposition Zrotation Yrotation Xrotation
	JOINT LeftUpLeg
	{
		OFFSET 0.069520 -0.091406 -0.006815
		CHANNELS 3 Zrotation Yrotation Xrotation
		JOINT LeftLeg
		{
			OFFSET 0.034277 -0.375199 -0.004496
			CHANNELS 3 Zrotation Yrotation Xrotation
			JOINT LeftFoot
			{
				OFFSET -0.013596 -0.397961 -0.043693
				CHANNELS 3 Zrotation Yrotation Xrotation
				JOINT LeftToe
				{
					OFFSET 0.026358 -0.055791 0.119288
					CHANNELS 3 Zrotation Yrotation Xrotation
					End Site
					{
						OFFSET 0.000000 0.000000 0.000000
					}
				}
			}
		}
	}
	JOINT RightUpLeg
	{
		OFFSET -0.067670 -0.090522 -0.004320
		CHANNELS 3 Zrotation Yrotation Xrotation
		JOINT RightLeg
		{
			OFFSET -0.038290 -0.382569 -0.008850
			CHANNELS 3 Zrotation Yrotation Xrotation
			JOINT RightFoot
			{
				OFFSET 0.015774 -0.398415 -0.042312
				CHANNELS 3 Zrotation Yrotation Xrotation
				JOINT RightToe
				{
					OFFSET -0.025372 -0.048144 0.123348
					CHANNELS 3 Zrotation Yrotation Xrotation
					End Site
					{
						OFFSET 0.000000 0.000000 0.000000
					}
				}
			}
		}
	}
	JOINT Spine
	{
		OFFSET -0.002533 0.108963 -0.026696
		CHANNELS 3 Zrotation Yrotation Xrotation
		JOINT Spine1
		{
			OFFSET 0.005487 0.135180 0.001092
			CHANNELS 3 Zrotation Yrotation Xrotation
			JOINT Spine2
			{
				OFFSET 0.001457 0.052922 0.025425
				CHANNELS 3 Zrotation Yrotation Xrotation
				JOINT Neck
				{
					OFFSET -0.002778 0.213870 -0.042857
					CHANNELS 3 Zrotation Yrotation Xrotation
					JOINT Head
					{
						OFFSET 0.005152 0.064970 0.051349
						CHANNELS 3 Zrotation Yrotation Xrotation
						End Site
						{
							OFFSET 0.000000 0.000000 0.000000
						}
					}
				}
				JOINT LeftShoulder
				{
					OFFSET 0.078845 0.121749 -0.034090
					CHANNELS 3 Zrotation Yrotation Xrotation
					JOINT LeftArm
					{
						OFFSET 0.090977 0.030469 -0.008868
						CHANNELS 3 Zrotation Yrotation Xrotation
						JOINT LeftForeArm
						{
							OFFSET 0.259612 -0.012772 -0.027456
							CHANNELS 3 Zrotation Yrotation Xrotation
							JOINT LeftHand
							{
								OFFSET 0.249234 0.008986 -0.001171
								CHANNELS 3 Zrotation Yrotation Xrotation
								End Site
								{
									OFFSET 0.000000 0.000000 0.000000
								}
							}
						}
					}
				}
				JOINT RightShoulder
				{
					OFFSET -0.081759 0.118833 -0.038615
					CHANNELS 3 Zrotation Yrotation Xrotation
					JOINT RightArm
					{
						OFFSET -0.096012 0.032551 -0.009143
						CHANNELS 3 Zrotation Yrotation Xrotation
						JOINT RightForeArm
						{
							OFFSET -0.253742 -0.013329 -0.021401
							CHANNELS 3 Zrotation Yrotation Xrotation
							JOINT RightHand
							{
								OFFSET -0.255298 0.007772 -0.005559
								CHANNELS 3 Zrotation Yrotation Xrotation
								End Site
								{
									OFFSET 0.000000 0.000000 0.000000
								}
							}
						}
					}
				}
			}
		}
	}
}
MOTION
Frames: 6
Frame Time: 0.050000
-1.680363 0.939193 0.155528 1.394173 31.390223 -1.427375 4.699043 -0.553380 -5.269597 1.615746 -0.743160 8.086382 -11.461100 -13.590980 9.490303 0.000000 0.000000 0.000000 -5.715471 -0.239831 -3.809883 -19.785291 4.149348 16.828678 3.558475 3.546163 23.452729 0.000000 0.000000 0.000000 -2.790080 -0.104803 3.765160 0.408913 -0.287340 0.218110 2.503448 -4.555155 5.012166 -3.960768 4.825599 -19.530298 0.000000 0.000000 0.000000 -23.931439 2.197313 -7.132611 -49.643899 2.674940 -6.370432 -7.529591 -30.811725 2.395080 0.000000 0.000000 0.000000 21.030035 0.216611 1.381750 54.505561 1.756571 -5.289499 -0.691902 24.199604 1.175575 0.000000 0.000000 0.000000
-1.712810 0.937921 0.166835 1.157489 34.958786 -1.763803 6.641631 -0.771315 -7.093828 2.579998 -1.028420 9.258342 -13.813520 -15.416431 11.769375 0.000000 0.000000 0.000000 -3.868228 -0.158876 -2.591152 -23.748758 4.559661 17.504866 11.083439 16.397384 19.508222 0.000000 0.000000 0.000000 -2.807916 -0.143922 4.703793 0.417661 -0.227699 -0.325792 2.005710 -3.990089 5.772737 -2.863096 4.517094 -19.161941 0.000000 0.000000 0.000000 -24.364368 1.206740 -7.578504 -48.730350 3.107037 -6.201840 -6.033008 -31.624328 1.828541 0.000000 0.000000 0.000000 21.872386 -0.027967 2.127009 53.872591 2.648636 -5.180165 -1.634792 24.903237 1.153154 0.000000 0.000000 0.000000
-1.746600 0.938467 0.176276 0.428966 37.783113 -2.041017 8.181569 -1.043039 -9.934393 4.686758 -1.704841 11.412588 -15.718322 -16.355130 14.067394 0.000000 0.000000 0.000000 -1.241093 0.067851 -2.487414 -22.861888 4.218345 18.095895 9.096605 14.931084 16.189720 0.000000 0.000000 0.000000 -2.430177 -0.195765 5.568778 0.412071 -0.222603 -0.462626 1.449836 -3.322766 5.431317 -2.163462 4.352828 -19.112614 0.000000 0.000000 0.000000 -24.454545 0.772223 -8.117711 -48.761946 3.666821 -6.215474 -4.518815 -30.783352 1.185727 0.000000 0.000000 0.000000 21.690630 0.199997 2.876171 54.042750 3.687704 -4.790974 -1.821032 24.667478 1.158216 0.000000 0.000000 0.000000
-1.777228 0.940107 0.183415 0.601072 40.067138 -0.969185 9.021916 -1.423131 -13.816758 5.160370 -2.309664 14.049449 -15.938519 -14.370101 16.119240 0.000000 0.000000 0.000000 0.233256 0.311686 -3.892357 -21.933237 3.916158 18.906850 7.744383 13.599454 13.896628 0.000000 0.000000 0.000000 -2.214625 -0.183344 5.285347 0.038013 -0.175687 0.035530 1.534855 -3.474602 5.038855 -1.846108 4.248299 -18.888170 0.000000 0.000000 0.000000 -24.965124 0.896836 -8.688728 -48.663209 4.952614 -6.564296 -4.758817 -32.164855 1.200979 0.000000 0.000000 0.000000 21.323390 0.316659 3.168730 53.224477 4.935369 -4.245668 -1.092007 24.877472 1.339767 0.000000 0.000000 0.000000
-1.803630 0.941766 0.188483 1.320611 41.691705 -0.140349 8.512934 -1.698729 -16.151059 4.531295 -2.837842 16.990322 -10.960566 -7.936865 13.270644 0.000000 0.000000 0.000000 1.210702 0.479428 -4.914296 -21.658410 3.748611 19.596986 6.898047 12.631372 12.434033 0.000000 0.000000 0.000000 -2.070398 -0.203939 5.587005 -0.643507 0.207287 -0.554489 1.464739 -3.280278 5.349906 -1.740852 4.421030 -19.951851 0.000000 0.000000 0.000000 -25.332602 0.128890 -8.848926 -48.432468 5.318195 -6.508721 -5.888461 -31.474043 1.412018 0.000000 0.000000 0.000000 21.056109 -0.436151 3.040769 52.551554 5.639671 -4.019929 -0.598014 25.285532 1.535322 0.000000 0.000000 0.000000
-1.826913 0.942748 0.191848 2.144254 42.705198 0.186762 5.822419 -1.865396 -17.084504 2.028138 -3.656437 22.642538 -0.817736 2.761449 5.219574 0.000000 0.000000 0.000000 2.118544 0.597843 -5.364891 -21.969673 3.717752 20.009976 6.374831 12.020710 11.343044 0.000000 0.000000 0.000000 -2.371988 -0.231601 6.163087 -0.785513 0.445875 -1.657791 1.950899 -3.638326 6.673860 -1.752391 4.660816 -21.658369 0.000000 0.000000 0.000000 -25.927991 0.673737 -9.510120 -48.336140 6.599047 -7.033945 -7.633187 -32.278595 1.928583 0.000000 0.000000 0.000000 20.336931 -0.337516 3.203495 52.928071 6.845930 -3.643191 -1.230781 24.997679 1.433320 0.000000 0.000000 0.000000
